<svg xmlns="http://www.w3.org/2000/svg" width="295.835" height="148.231" viewBox="0 0 295.835 148.231">
  <g id="Group_255" data-name="Group 255" transform="translate(-31.955 -9.884)">
    <g id="圖層_2" data-name="圖層 2" transform="translate(31.968 9.916)">
      <g id="圖">
        <path id="Path_41" data-name="Path 41" d="M130.82,37.49c-6.35-7.74-14.33-10.2-22.48-11.69s-23.09-2.52-33.8,0S53.26,35.49,52.2,39.5s2.57,5,5.44,3,6.64-1.15,6,1-5.43,2-3.92,5,5.88,10-2,9.31S47.38,52.4,41.94,56.26s-3.32,13.47,5.28,13,14.34-5.59,16.3-2,5.48,7.63,12.22,6.2c7.24-1.53,12.7-6.55,18.91-10,4.15-2.32,17.56-7.23,18.37.85.6,6,8.6,10.31,14.94,7.88S143.05,52.4,130.82,37.49Z" fill="#e1efd5"/>
        <ellipse id="Ellipse_14" data-name="Ellipse 14" cx="3.62" cy="3.44" rx="3.62" ry="3.44" transform="translate(68.65 76.66)" fill="#f5b5be"/>
        <ellipse id="Ellipse_15" data-name="Ellipse 15" cx="3.62" cy="3.44" rx="3.62" ry="3.44" transform="translate(104.26 76.66)" fill="#f5b5be"/>
        <path id="Path_42" data-name="Path 42" d="M25.28,67.81c-4.44-1.45-3.76-7.38-10.24-7.38S.35,65,0,72.21s6.32,5.08,5.3,7.72-6.15,4.92-3.93,9,11.78,6.5,21.51,0S39.79,72.55,25.28,67.81Z" fill="#e1efd5"/>
        <path id="Path_43" data-name="Path 43" d="M131.11,86.69a6.77,6.77,0,0,0-6.94-6.59c-5.68,0-6.1,4.83-7.52,8.79a11.62,11.62,0,0,1-9.76,7.55c-4.17.51-8.19-.65-10.46-4.28-2.15-3.43-1.28-10.27-7.05-10.27S85,88.11,83.6,91.62c-1.87,4.56-6.7,6.31-11.57,6.25-3.06,0-6.86-.81-8.54-3.48-2.21-3.52,1.25-6.56-.16-10a7,7,0,0,0-6.49-4.24c-5.53,0-7.42,6.25-8.26,10.56-1.16,6,1.24,11.68,5.8,15.81,10.26,9.31,25.18,5.58,25.18,5.58s2.93,11.8-5.72,25.51a6.36,6.36,0,0,0-1.42,4,6.57,6.57,0,0,0,3.91,5.92,5.26,5.26,0,0,0,2.57.67h.47c10.58,0,14-13,14.49-19.91.1-1.4,1.22-16,.88-16.09,12.63,1.47,28.15-3.35,33.49-15C129.65,94,131.11,90.12,131.11,86.69Z" fill="#f5b5be"/>
        <path id="Path_44" data-name="Path 44" d="M90.22,35.62c-7.49,0-11.89-5.24-12.24-10.18-.47-6.65,7.08-8.15,11.14-9A24.49,24.49,0,0,1,93.85,16c4.91,0,7.38,2,8.58,3.72a10.49,10.49,0,0,1,1.16,8.8c-1.13,3.23-5.06,6.79-12.68,7.11Z" fill="#fff"/>
        <path id="Path_45" data-name="Path 45" d="M93.85,17.82c9.24,0,8.8,7.81,8,10.07-.91,2.58-4.23,5.59-11,5.88h-.61c-6.41,0-10.11-4.3-10.4-8.47s3.85-5.87,9.66-7a22.34,22.34,0,0,1,4.37-.47m0-3.68a26.59,26.59,0,0,0-5.09.54c-4,.78-13.19,2.62-12.61,10.89a12.47,12.47,0,0,0,4.1,8.27,14.55,14.55,0,0,0,10,3.62H91c8.54-.36,13-4.54,14.33-8.34a12.26,12.26,0,0,0-1.39-10.47c-1.45-2.05-4.38-4.5-10.08-4.5Z" fill="#fff"/>
        <path id="Path_46" data-name="Path 46" d="M89.48,18.29c-5.81,1.15-10,2.73-9.66,7s4.22,8.74,11,8.46,10.11-3.3,11-5.88S103.21,15.57,89.48,18.29Z" fill="#f5b5be"/>
        <path id="Path_47" data-name="Path 47" d="M88,21.92s2.16,2.08,5.89,0" fill="none" stroke="#fff" stroke-linecap="round" stroke-linejoin="round" stroke-width="2.45"/>
        <path id="Path_48" data-name="Path 48" d="M93.47,14.13c.21-.34.45-.67.68-1,.41-.56-.07.07.22-.27l.42-.5c.36-.41.73-.81,1.12-1.21l.54-.53c-.44.43.35-.32.42-.39.46-.41.92-.8,1.39-1.18l.81-.63c-.49.37.21-.14.31-.21.59-.42,1.19-.81,1.81-1.19.32-.19.36-.21.11-.07l.42-.23c.33-.18.66-.36,1-.53A20.94,20.94,0,0,1,120.91,6c1.69.78,6.25-3.06,4.56-3.84-7.43-3.44-15.59-2.62-22.78,1C97.38,5.82,92,9.89,88.82,15c-.64,1-.15,1.75,1,1.56a5.86,5.86,0,0,0,3.63-2.39Z" fill="#f5b5be"/>
      </g>
    </g>
    <g id="圖層_2-2" data-name="圖層 2" transform="translate(160.955 -0.494)">
      <g id="圖-2" data-name="圖" transform="translate(23 60.89)">
        <text id="甜甜" transform="translate(50.835 38)" fill="#f5b5be" font-size="44" font-family="Mukasi-Mukasi, Mukasi Mukasi" letter-spacing="0.1em"><tspan x="0" y="0">甜甜</tspan></text>
        <path id="Path_49" data-name="Path 49" d="M14.709,15.374a44.452,44.452,0,0,0-.131-4.611c-.033-.36-.131-.9-.2-1.275a4.644,4.644,0,0,0-.523-1.635,3.875,3.875,0,0,0-1.046-1.145,2.665,2.665,0,0,0-2.077-.474c-.1,0-.654,0-3.352.245a8.372,8.372,0,0,1-1.635,0V6.43l-.638-.376a3.434,3.434,0,0,0-2.371-.311A2.371,2.371,0,0,0,.4,7.967v2.42L.141,13.919c0,1.831-.114,4.022-.131,6.54v4.415a5.674,5.674,0,0,0,.245,1.5,2.355,2.355,0,0,0,2.191,1.635,2.224,2.224,0,0,0,2.24-1.423l.7.114a11,11,0,0,0,2.011.147q.834,0,2.256.1l.589,1,.687.114a4.9,4.9,0,0,0,.818,0,2.453,2.453,0,0,0,1.079-.213A2.943,2.943,0,0,0,14.2,25.643a12.476,12.476,0,0,0,.311-2.158,21.375,21.375,0,0,1,.131-2.567C14.775,19.756,14.709,17.958,14.709,15.374ZM5.488,18.5c0-.392,0-1.21.1-2.485,0-.981.1-2.142.2-3.5h2.6a8.176,8.176,0,0,1,.916,0,15.124,15.124,0,0,1,0,1.635c0,1.161,0,2.551,0,4.153v2.632H7.253c-.6,0-1.21-.1-1.815-.114C5.455,19.3,5.471,18.71,5.488,18.5Z" transform="translate(0.006 3.772)" fill="#e1efd5"/>
        <path id="Path_50" data-name="Path 50" d="M21.413,40.843a96.8,96.8,0,0,1-.147-11.674c-1,0-2.682-.114-5.036-.36a11.707,11.707,0,0,1-4.088-.785q-.556-.441-1.03-9.287a62.574,62.574,0,0,1,1-15.958A14.716,14.716,0,0,1,20.53,1.47L26.5,1.242a22.4,22.4,0,0,1,5.952.376,4.611,4.611,0,0,1,3.826,3.826,63.964,63.964,0,0,1,.572,12.819q-.18,9.582-.67,10.252c-.752.343-3.875.556-9.369.6q.1,2.5.441,5.837a16.514,16.514,0,0,1-.213,5.478c-.36,1.423-1.1,2.191-2.191,2.322A4.153,4.153,0,0,1,21.413,40.843Zm-.082-27.518V8.289c0-.6-.2-.981-.572-1.128a4.807,4.807,0,0,0-1.226-.294L17.9,6.7A2.371,2.371,0,0,0,15.92,7.766c-.474.589-.458,2.518,0,5.772a15.68,15.68,0,0,0,5.412-.213ZM20.825,23.56a11.773,11.773,0,0,0,.147-4.366c-2.976-.67-4.693-.572-5.167.294l-.065,4.284a13.964,13.964,0,0,0,5.085-.213Zm12.1-9.81A36.135,36.135,0,0,0,32.6,7.716c-.294-.343-1.177-.523-2.632-.523a27.508,27.508,0,0,0-3.973.18,11.985,11.985,0,0,1,.131,3.27,5.772,5.772,0,0,0,.425,3.172,23.022,23.022,0,0,0,6.41-.147Zm0,9.631a15.583,15.583,0,0,0,0-4.1q-.719-1.373-6.671-.883.147,1.324.294,4.807c.818.311,2.91.36,6.41.1Z" transform="translate(6.972 0.933)" fill="#e1efd5"/>
        <text id="SWEET_BAKERY" data-name="SWEET BAKERY" transform="translate(0 69.604)" fill="#f5b5be" font-size="14" font-family="Mukasi-Mukasi, Mukasi Mukasi" letter-spacing="0.1em"><tspan x="0" y="0">SWEET </tspan><tspan y="0" fill="#e1efd5">BAKERY</tspan></text>
      </g>
    </g>
  </g>
</svg>
