<svg xmlns="http://www.w3.org/2000/svg" width="278.037" height="106.677" viewBox="0 0 278.037 106.677">
  <g id="Group_2" data-name="Group 2" transform="translate(-28 -44.323)">
    <g id="圖層_2" data-name="圖層 2" transform="translate(28.013 44.354)">
      <g id="圖" transform="translate(-0.013 -0.031)">
        <path id="Path_11" data-name="Path 11" d="M105.066,33.785c-4.57-5.57-10.313-7.341-16.178-8.413s-16.617-1.814-24.325,0-15.314,6.974-16.077,9.859,1.85,3.6,3.915,2.159,4.779-.828,4.318.72-3.908,1.439-2.821,3.6,4.232,7.2-1.439,6.7S45.017,44.515,41.1,47.293s-2.389,9.694,3.8,9.356,10.32-4.023,11.731-1.439,3.944,5.491,8.794,4.462c5.21-1.1,9.14-4.714,13.609-7.2,2.987-1.67,12.637-5.2,13.22.612.432,4.318,6.189,7.42,10.752,5.671S113.868,44.515,105.066,33.785Z" transform="translate(-10.91 -6.782)" fill="#e1efd5"/>
        <ellipse id="Ellipse_7" data-name="Ellipse 7" cx="2.605" cy="2.476" rx="2.605" ry="2.476" transform="translate(49.415 55.192)" fill="#f5b5be"/>
        <ellipse id="Ellipse_8" data-name="Ellipse 8" cx="2.605" cy="2.476" rx="2.605" ry="2.476" transform="translate(75.042 55.192)" fill="#f5b5be"/>
        <path id="Path_12" data-name="Path 12" d="M18.189,65.741c-3.2-1.044-2.706-5.311-7.369-5.311S.248,63.719,0,68.908s4.548,3.656,3.814,5.556S-.615,78,.982,80.94s8.478,4.678,15.48,0S28.632,69.152,18.189,65.741Z" transform="translate(0.013 -16.918)" fill="#e1efd5"/>
        <path id="Path_13" data-name="Path 13" d="M107.893,84.842A4.872,4.872,0,0,0,102.9,80.1c-4.088,0-4.39,3.476-5.412,6.326a8.362,8.362,0,0,1-7.024,5.433c-3,.367-5.894-.468-7.528-3.08-1.547-2.468-.921-7.391-5.074-7.391s-3.152,4.476-4.16,7c-1.346,3.282-4.822,4.541-8.327,4.5-2.2,0-4.937-.583-6.146-2.5-1.59-2.533.9-4.721-.115-7.2a5.038,5.038,0,0,0-4.671-3.051c-3.98,0-5.34,4.5-5.944,7.6a12.123,12.123,0,0,0,4.174,11.378c7.384,6.7,18.121,4.016,18.121,4.016s2.109,8.492-4.116,18.359a4.577,4.577,0,0,0-1.022,2.879,4.728,4.728,0,0,0,2.814,4.26,3.785,3.785,0,0,0,1.85.482h.338c7.614,0,10.075-9.356,10.428-14.329.072-1.008.878-11.515.633-11.579,9.089,1.058,20.259-2.411,24.1-10.795A20.108,20.108,0,0,0,107.893,84.842Z" transform="translate(-13.528 -22.432)" fill="#f5b5be"/>
        <path id="Path_14" data-name="Path 14" d="M86.783,30.12c-5.39,0-8.557-3.771-8.809-7.326-.338-4.786,5.1-5.865,8.017-6.477A17.625,17.625,0,0,1,89.4,16c3.534,0,5.311,1.439,6.175,2.677A7.549,7.549,0,0,1,96.4,25.01c-.813,2.325-3.642,4.887-9.125,5.117Z" transform="translate(-21.845 -4.463)" fill="#fff"/>
        <path id="Path_15" data-name="Path 15" d="M88.886,16.791c6.65,0,6.333,5.621,5.757,7.247-.655,1.857-3.044,4.023-7.916,4.232h-.439c-4.613,0-7.276-3.095-7.484-6.1s2.771-4.224,6.952-5.038A16.077,16.077,0,0,1,88.9,16.8m0-2.648a19.136,19.136,0,0,0-3.663.389c-2.879.561-9.492,1.886-9.075,7.837a8.974,8.974,0,0,0,2.951,5.952,10.471,10.471,0,0,0,7.2,2.605h.525c6.146-.259,9.356-3.267,10.313-6a8.823,8.823,0,0,0-1-7.535C95.1,15.92,93,14.157,88.894,14.157Z" transform="translate(-21.336 -3.944)" fill="#fff"/>
        <path id="Path_16" data-name="Path 16" d="M86.767,18.157c-4.181.828-7.2,1.965-6.952,5.038s3.037,6.29,7.916,6.088,7.276-2.375,7.916-4.232S96.648,16.2,86.767,18.157Z" transform="translate(-22.361 -4.972)" fill="#f5b5be"/>
        <path id="Path_17" data-name="Path 17" d="M88,21.92s1.554,1.5,4.239,0" transform="translate(-24.66 -6.123)" fill="none" stroke="#fff" stroke-linecap="round" stroke-linejoin="round" stroke-width="2.45"/>
        <path id="Path_18" data-name="Path 18" d="M92.087,10.16c.151-.245.324-.482.489-.72.3-.4-.05.05.158-.194l.3-.36c.259-.3.525-.583.806-.871l.389-.381c-.317.309.252-.23.3-.281.331-.3.662-.576,1-.849l.583-.453c-.353.266.151-.1.223-.151.425-.3.856-.583,1.3-.856.23-.137.259-.151.079-.05l.3-.166c.237-.13.475-.259.72-.381a15.07,15.07,0,0,1,13.091-.137c1.216.561,4.5-2.2,3.282-2.764C109.769-.93,103.9-.34,98.722,2.265a25.013,25.013,0,0,0-9.982,8.521c-.461.72-.108,1.259.72,1.123a4.217,4.217,0,0,0,2.612-1.72Z" transform="translate(-24.81 0.031)" fill="#f5b5be"/>
      </g>
    </g>
    <g id="圖層_2-2" data-name="圖層 2" transform="translate(156 71.11)">
      <g id="圖-2" data-name="圖" transform="translate(0 -0.11)">
        <text id="甜甜" transform="translate(53.037 40)" fill="#f5b5be" font-size="46" font-family="YuGothicUI-Regular, Yu Gothic UI" letter-spacing="0.1em"><tspan x="0" y="0">甜甜</tspan></text>
        <path id="Path_19" data-name="Path 19" d="M15.346,15.8a46.378,46.378,0,0,0-.136-4.811c-.034-.375-.136-.938-.2-1.331a4.845,4.845,0,0,0-.546-1.706,4.043,4.043,0,0,0-1.092-1.194A2.781,2.781,0,0,0,11.2,6.259c-.1,0-.682,0-3.5.256A8.734,8.734,0,0,1,6,6.515V6.464l-.665-.392a3.582,3.582,0,0,0-2.474-.324A2.474,2.474,0,0,0,.419,8.068v2.525L.146,14.277c0,1.911-.119,4.2-.136,6.824v4.606a5.92,5.92,0,0,0,.256,1.569,2.457,2.457,0,0,0,2.286,1.706A2.32,2.32,0,0,0,4.889,27.5l.734.119a11.482,11.482,0,0,0,2.1.154q.87,0,2.354.1l.614,1.041.716.119a5.117,5.117,0,0,0,.853,0,2.559,2.559,0,0,0,1.126-.222,3.071,3.071,0,0,0,1.433-2.3,13.016,13.016,0,0,0,.324-2.252,22.3,22.3,0,0,1,.136-2.678C15.415,20.367,15.346,18.491,15.346,15.8ZM5.725,19.054c0-.409,0-1.262.1-2.593,0-1.024.1-2.235.2-3.651H8.744a8.53,8.53,0,0,1,.955,0,15.779,15.779,0,0,1,0,1.706c0,1.211,0,2.661,0,4.333V21.6H7.567c-.631,0-1.262-.1-1.894-.119C5.691,19.89,5.708,19.276,5.725,19.054Z" transform="translate(0.007 4.181)" fill="#e1efd5"/>
        <path id="Path_20" data-name="Path 20" d="M21.866,42.562a100.994,100.994,0,0,1-.154-12.18c-1.041,0-2.8-.119-5.254-.375a12.214,12.214,0,0,1-4.265-.819q-.58-.461-1.075-9.69a65.286,65.286,0,0,1,1.041-16.65,15.353,15.353,0,0,1,8.786-1.365l6.227-.239a23.371,23.371,0,0,1,6.21.392,4.811,4.811,0,0,1,3.992,3.992A66.735,66.735,0,0,1,37.97,19q-.188,10-.7,10.7c-.785.358-4.043.58-9.775.631q.1,2.61.461,6.09a17.23,17.23,0,0,1-.222,5.715c-.375,1.484-1.143,2.286-2.286,2.422a4.333,4.333,0,0,1-3.582-2ZM21.78,13.851V8.6c0-.631-.2-1.024-.6-1.177A5.015,5.015,0,0,0,19.9,7.112L18.2,6.942a2.474,2.474,0,0,0-2.064,1.109c-.495.614-.478,2.627,0,6.022a16.36,16.36,0,0,0,5.647-.222ZM21.252,24.53a12.283,12.283,0,0,0,.154-4.555c-3.1-.7-4.9-.6-5.391.307l-.068,4.47a14.569,14.569,0,0,0,5.305-.222ZM33.875,14.294A37.7,37.7,0,0,0,33.534,8c-.307-.358-1.228-.546-2.747-.546a28.7,28.7,0,0,0-4.145.188,12.5,12.5,0,0,1,.136,3.412,6.022,6.022,0,0,0,.444,3.31,24.019,24.019,0,0,0,6.687-.154Zm0,10.048a16.258,16.258,0,0,0,0-4.282q-.751-1.433-6.96-.921.154,1.382.307,5.015c.853.324,3.037.375,6.687.1Z" transform="translate(7.749 1.025)" fill="#e1efd5"/>
        <text id="SWEETY_BAKERY" data-name="SWEETY BAKERY" transform="translate(0 73.1)" fill="#f5b5be" font-size="15" font-family="SegoeUI, Segoe UI" letter-spacing="0.1em"><tspan x="0" y="0">SWEETY </tspan><tspan y="0" fill="#e1efd5">BAKERY</tspan></text>
      </g>
    </g>
  </g>
</svg>
